<svg width="100" height="100" viewBox="0 0 100 100" fill="none" xmlns="http://www.w3.org/2000/svg">
<g clip-path="url(#clip0_149_167)">
<path d="M90 0C95.5228 1.28852e-06 100 4.47715 100 10V44C100 47.3137 97.3137 50 94 50H81C77.6863 50 75 52.6863 75 56V69C75 72.3137 72.3137 75 69 75H56C52.6863 75 50 77.6863 50 81V94C50 97.3137 47.3137 100 44 100H10C4.47715 100 8.05347e-08 95.5229 0 90V10C1.28855e-06 4.47715 4.47715 8.05322e-08 10 0H90Z" fill="#0066FF"/>
<path d="M25 53C25 49.6863 27.6863 47 31 47H44C47.3137 47 50 49.6863 50 53V66C50 69.3137 47.3137 72 44 72H31C27.6863 72 25 69.3137 25 66V53Z" fill="white"/>
<path d="M75 81C75 77.6863 77.6863 75 81 75H94C97.3137 75 100 77.6863 100 81V94C100 97.3137 97.3137 100 94 100H81C77.6863 100 75 97.3137 75 94V81Z" fill="#0066FF"/>
<path d="M50 28C50 24.6863 52.6863 22 56 22H69C72.3137 22 75 24.6863 75 28V41C75 44.3137 72.3137 47 69 47H56C52.6863 47 50 44.3137 50 41V28Z" fill="white"/>
</g>
<defs>
<clipPath id="clip0_149_167">
<rect width="100" height="100" fill="white"/>
</clipPath>
</defs>
</svg>
